<mxfile host="app.diagrams.net" modified="2023-05-11T14:39:54.141Z" agent="Mozilla/5.0 (Windows NT 10.0; Win64; x64) AppleWebKit/537.36 (KHTML, like Gecko) Chrome/113.0.0.0 Safari/537.36" etag="Ia0makzXqB9UEXJ32q7x" version="21.2.2" type="github">
  <diagram name="PÃ¡gina-1" id="JEfEmlAESXXc0fhyXD65">
    <mxGraphModel dx="1195" dy="630" grid="0" gridSize="10" guides="1" tooltips="1" connect="1" arrows="1" fold="1" page="0" pageScale="1" pageWidth="827" pageHeight="1169" math="0" shadow="0">
      <root>
        <mxCell id="0" />
        <mxCell id="1" parent="0" />
        <mxCell id="vPfyhUkh-z6iJ_YDMwDp-1" value="SP&lt;br&gt;WebApi_WireFinalUpdate_withPayerWireExpiration" style="rounded=0;whiteSpace=wrap;html=1;" vertex="1" parent="1">
          <mxGeometry x="321" y="375" width="295" height="60" as="geometry" />
        </mxCell>
        <mxCell id="vPfyhUkh-z6iJ_YDMwDp-2" value="WireService&lt;br&gt;WireFinalUpdate" style="rounded=0;whiteSpace=wrap;html=1;" vertex="1" parent="1">
          <mxGeometry x="335" y="260" width="120" height="60" as="geometry" />
        </mxCell>
        <mxCell id="vPfyhUkh-z6iJ_YDMwDp-3" value="" style="endArrow=classic;html=1;rounded=0;exitX=0.5;exitY=1;exitDx=0;exitDy=0;entryX=0.25;entryY=0;entryDx=0;entryDy=0;" edge="1" parent="1" source="vPfyhUkh-z6iJ_YDMwDp-2" target="vPfyhUkh-z6iJ_YDMwDp-1">
          <mxGeometry width="50" height="50" relative="1" as="geometry">
            <mxPoint x="383" y="391" as="sourcePoint" />
            <mxPoint x="433" y="341" as="targetPoint" />
          </mxGeometry>
        </mxCell>
        <mxCell id="vPfyhUkh-z6iJ_YDMwDp-4" value="SaveWireTransferCommandHandler" style="rounded=0;whiteSpace=wrap;html=1;" vertex="1" parent="1">
          <mxGeometry x="268.5" y="147" width="253" height="60" as="geometry" />
        </mxCell>
        <mxCell id="vPfyhUkh-z6iJ_YDMwDp-5" value="" style="endArrow=classic;html=1;rounded=0;exitX=0.5;exitY=1;exitDx=0;exitDy=0;entryX=0.5;entryY=0;entryDx=0;entryDy=0;" edge="1" parent="1" source="vPfyhUkh-z6iJ_YDMwDp-4" target="vPfyhUkh-z6iJ_YDMwDp-2">
          <mxGeometry width="50" height="50" relative="1" as="geometry">
            <mxPoint x="383" y="384" as="sourcePoint" />
            <mxPoint x="433" y="334" as="targetPoint" />
          </mxGeometry>
        </mxCell>
        <mxCell id="vPfyhUkh-z6iJ_YDMwDp-7" value="" style="edgeStyle=orthogonalEdgeStyle;rounded=0;orthogonalLoop=1;jettySize=auto;html=1;" edge="1" parent="1" source="vPfyhUkh-z6iJ_YDMwDp-6" target="vPfyhUkh-z6iJ_YDMwDp-4">
          <mxGeometry relative="1" as="geometry" />
        </mxCell>
        <mxCell id="vPfyhUkh-z6iJ_YDMwDp-6" value="Wire API&lt;br&gt;POST&lt;br&gt;/api/wire" style="rounded=0;whiteSpace=wrap;html=1;" vertex="1" parent="1">
          <mxGeometry x="55" y="147" width="120" height="60" as="geometry" />
        </mxCell>
      </root>
    </mxGraphModel>
  </diagram>
</mxfile>
